<svg xmlns="http://www.w3.org/2000/svg" width="128.379" height="139.122" viewBox="0 0 128.379 139.122">
  <g id="Livello_114" transform="translate(-6.676)">
    <path id="Path_5" data-name="Path 5" d="M135.055,115.131a6.4,6.4,0,0,0-6.4-6.4,15.988,15.988,0,0,1-15.988-15.99V54.367A41.645,41.645,0,0,0,79.533,13.688a9.593,9.593,0,1,0-17.334,0A41.645,41.645,0,0,0,29.062,54.372V92.749a15.989,15.989,0,0,1-15.99,15.99,6.4,6.4,0,1,0,0,12.792h45c0,9.716,5.729,17.591,12.793,17.591s12.792-7.875,12.792-17.591h45a6.4,6.4,0,0,0,6.4-6.4" fill="#606060"/>
  </g>
</svg>
